<svg xmlns="http://www.w3.org/2000/svg" xmlns:xlink="http://www.w3.org/1999/xlink" viewBox="0 0 309.94 355.04"><defs><style>.cls-1{fill:url(#名称未設定グラデーション_48);}.cls-2{fill:#454545;}</style><linearGradient id="名称未設定グラデーション_48" x1="154.97" y1="351.04" x2="154.97" y2="4" gradientUnits="userSpaceOnUse"><stop offset="0" stop-color="#d2d2d2"/><stop offset="0.5" stop-color="#d2d2d2"/><stop offset="0.51" stop-color="#fafafa"/><stop offset="1" stop-color="#fafafa"/></linearGradient></defs><g id="レイヤー_2" data-name="レイヤー 2"><g id="レイヤー_8" data-name="レイヤー 8"><path class="cls-1" d="M300.74,351a5.17,5.17,0,0,1-2.6-.7L6.6,182a5.2,5.2,0,0,1,0-9L298.14,4.7a5.2,5.2,0,0,1,7.8,4.5V345.84a5.2,5.2,0,0,1-5.2,5.2Z"/><path class="cls-2" d="M300.74,8a1.2,1.2,0,0,1,1.2,1.2V345.84a1.2,1.2,0,0,1-1.8,1L8.6,178.56a1.2,1.2,0,0,1,0-2.08L300.14,8.16a1.2,1.2,0,0,1,.6-.16m0-8a9.29,9.29,0,0,0-4.6,1.23L4.6,169.55a9.2,9.2,0,0,0,0,15.94L296.14,353.81a9.2,9.2,0,0,0,13.8-8V9.2a9.21,9.21,0,0,0-9.2-9.2Z"/></g></g></svg>