<?xml version="1.0" encoding="UTF-8"?>
<svg width="27" height="21" viewBox="0 0 27 21" xmlns="http://www.w3.org/2000/svg" id="shape">
<path d="m22.857 1.8701c-1.7208-0.7928-3.5662-1.3769-5.4957-1.7114-0.0352-0.006457-0.0703 0.009679-0.0884 0.04195-0.2373 0.42382-0.5002 0.97673-0.6843 1.4113-2.0752-0.31195-4.1399-0.31195-6.1726 0-0.1841-0.44425-0.45655-0.9875-0.69495-1.4113-0.0181-0.031195-0.05321-0.04733-0.08834-0.04195-1.9284 0.33347-3.7738 0.91758-5.4958 1.7114-0.01491 0.00646-0.02768 0.01722-0.03616 0.0312-3.5003 5.2505-4.4592 10.372-3.9888 15.43 0.002128 0.0247 0.015963 0.0484 0.03512 0.0634 2.3094 1.7029 4.5465 2.7366 6.742 3.4219 0.03514 0.0107 0.07237-0.0022 0.09473-0.0312 0.51935-0.7121 0.9823-1.463 1.3792-2.2526 0.02343-0.0462 0.00106-0.1011-0.04681-0.1194-0.73433-0.2797-1.4336-0.6207-2.1062-1.0079-0.05321-0.0312-0.05746-0.1076-0.00852-0.1442 0.14154-0.1065 0.28312-0.2173 0.41827-0.3291 0.02445-0.0205 0.05852-0.0248 0.08727-0.0119 4.4187 2.0256 9.2025 2.0256 13.569 0 0.0288-0.0139 0.0628-0.0096 0.0884 0.0108 0.1352 0.1119 0.2767 0.2237 0.4193 0.3302 0.0489 0.0366 0.0457 0.113-0.0075 0.1442-0.6726 0.3948-1.3718 0.7282-2.1072 1.0069-0.0479 0.0182-0.0691 0.0742-0.0457 0.1204 0.4054 0.7885 0.8684 1.5394 1.3782 2.2515 0.0213 0.0301 0.0595 0.043 0.0947 0.0323 2.2062-0.6853 4.4432-1.719 6.7526-3.4219 0.0202-0.015 0.033-0.0376 0.0351-0.0624 0.563-5.8475-0.9429-10.927-3.992-15.43-0.0074-0.01505-0.0202-0.02581-0.0351-0.03227zm-13.834 12.381c-1.3303 0-2.4265-1.2263-2.4265-2.7323s1.0749-2.7323 2.4265-2.7323c1.3622 0 2.4478 1.2371 2.4265 2.7323 0 1.506-1.0749 2.7323-2.4265 2.7323zm8.9716 0c-1.3303 0-2.4265-1.2263-2.4265-2.7323s1.0749-2.7323 2.4265-2.7323c1.3622 0 2.4478 1.2371 2.4265 2.7323 0 1.506-1.0643 2.7323-2.4265 2.7323z"/>
</svg>
