<?xml version="1.0" encoding="UTF-8" standalone="no"?> <!-- Created with Vectornator for iOS (http://vectornator.io/) --><!DOCTYPE svg PUBLIC "-//W3C//DTD SVG 1.1//EN" "http://www.w3.org/Graphics/SVG/1.1/DTD/svg11.dtd">
<svg height="100%" style="fill-rule:evenodd;clip-rule:evenodd;stroke-linecap:round;stroke-linejoin:round;" xmlns:xlink="http://www.w3.org/1999/xlink" xmlns="http://www.w3.org/2000/svg" xml:space="preserve" width="100%" xmlns:vectornator="http://vectornator.io" version="1.1" viewBox="0 0 708.767 179.332">
<metadata>
<vectornator:setting key="Units" value="Points"/>
<vectornator:setting key="GuidesVisible" value="1"/>
<vectornator:setting key="RulersVisible" value="1"/>
<vectornator:setting key="SnapToGuides" value="1"/>
<vectornator:setting key="DynamicGuides" value="1"/>
</metadata>
<defs/>
<g id="Untitled" vectornator:layerName="Untitled">
<g opacity="1">
<path d="M158.431+165.498L150.077+142.79C150.077+142.79+136.502+157.93+116.145+157.93C98.132+157.93+85.343+142.268+85.343+117.209C85.343+85.103+101.525+73.618+117.45+73.618C140.419+73.618+147.727+88.496+153.993+107.552L162.347+133.655C170.698+158.973+186.36+179.333+231.517+179.333C263.887+179.333+285.812+169.415+285.812+143.313C285.812+122.17+273.803+111.206+251.354+105.985L234.649+102.331C223.165+99.721+219.772+95.022+219.772+87.191C219.772+78.316+226.818+73.095+238.305+73.095C250.834+73.095+257.62+77.794+258.665+89.018L284.767+85.885C282.679+62.393+266.496+52.735+239.871+52.735C216.38+52.735+193.409+61.61+193.409+90.062C193.409+107.812+202.023+119.037+223.686+124.257L241.438+128.432C254.75+131.565+259.186+137.046+259.186+144.617C259.186+154.273+249.79+158.189+232.04+158.189C205.676+158.189+194.715+144.355+188.449+125.299L179.835+99.198C168.874+65.264+151.383+52.735+116.666+52.735C78.296+52.735+57.935+77.01+57.935+118.252C57.935+157.929+78.296+179.332+114.841+179.332C144.333+179.332+158.431+165.498+158.431+165.498L158.431+165.498Z" opacity="1" fill="#ffffff"/>
<path d="M46.726+153.229C44.116+154.013+41.505+154.535+38.112+154.535C31.847+154.535+27.409+151.665+27.409+144.093L27.409+1.827L0+1.827L0+150.619C0+170.196+13.575+178.291+29.497+178.291C34.718+178.291+39.678+177.506+45.943+175.942L46.726+153.229L46.726+153.229Z" opacity="1" fill="#ffffff"/>
<path d="M376.911+149.053C370.124+153.754+364.382+156.104+356.551+156.104C346.631+156.104+341.15+150.883+341.15+138.092L341.15+77.006L377.173+77.006L377.173+55.603L341.41+55.603L341.41+26.625L313.741+30.019L313.741+55.602L296.251+55.602L296.251+77.005L313.741+77.005L313.741+143.831C313.741+167.851+327.575+179.331+350.025+179.331C362.294+179.331+373.257+176.985+381.872+172.026L376.911+149.053L376.911+149.053Z" opacity="1" fill="#ffffff"/>
<path d="M400.718+158.449C400.718+169.154+409.072+177.767+419.774+177.767C431+177.767+439.352+169.154+439.352+158.449C439.352+147.486+430.999+139.136+419.774+139.136C409.072+139.136+400.718+147.486+400.718+158.449L400.718+158.449Z" opacity="1" fill="#ffffff"/>
<path d="M467.727+77.006L467.727+176.201L495.136+176.201L495.136+77.006L525.939+77.006L525.939+55.603L495.136+55.603L495.136+44.638C495.136+28.194+502.185+22.973+513.67+22.973C521.762+22.973+527.244+24.798+533.509+28.194L537.946+5.22C530.638+1.827+522.023+0+511.582+0C488.609+0+467.727+10.963+467.727+43.593L467.727+55.603L450.238+55.603L450.238+77.006L467.727+77.006L467.727+77.006Z" opacity="1" fill="#ffffff"/>
<path d="M635.154+79.358C632.021+59.78+619.231+52.729+602.524+52.729C585.818+52.729+571.462+60.3+565.195+78.833L561.802+55.603L539.614+55.603L539.614+176.201L567.023+176.201L567.023+108.072C567.023+84.837+579.031+75.962+591.822+75.962C605.134+75.962+610.617+84.837+610.617+99.194L610.617+176.2L637.764+176.2L637.764+107.81C637.764+84.836+650.033+75.961+662.825+75.961C675.877+75.961+681.357+84.836+681.357+99.193L681.357+176.199L708.766+176.199L708.766+89.539C708.766+63.696+693.626+52.729+673.526+52.729C656.561+52.729+641.419+60.3+635.154+79.358L635.154+79.358Z" opacity="1" fill="#ffffff"/>
</g>
</g>
</svg>
