<?xml version="1.0" encoding="UTF-8" standalone="no"?> <!-- Created with Vectornator for iOS (http://vectornator.io/) --><!DOCTYPE svg PUBLIC "-//W3C//DTD SVG 1.1//EN" "http://www.w3.org/Graphics/SVG/1.1/DTD/svg11.dtd">
<svg height="100%" style="fill-rule:evenodd;clip-rule:evenodd;stroke-linecap:round;stroke-linejoin:round;" xmlns:xlink="http://www.w3.org/1999/xlink" xmlns="http://www.w3.org/2000/svg" xml:space="preserve" width="100%" xmlns:vectornator="http://vectornator.io" version="1.1" viewBox="0 0 167 188">
<metadata>
<vectornator:setting key="Units" value="Points"/>
<vectornator:setting key="GuidesVisible" value="1"/>
<vectornator:setting key="RulersVisible" value="1"/>
<vectornator:setting key="SnapToGuides" value="1"/>
<vectornator:setting key="DynamicGuides" value="1"/>
</metadata>
<defs/>
<g id="white/logo_symbol" vectornator:layerName="white/logo_symbol">
<path d="M63.8885+63.6969L63.8885+49.3183C63.8885+46.6981+64.0242+45.8242+64.4276+44.48C65.5057+40.7848+69.146+38.0304+73.4586+38.0304C77.7713+38.0304+81.4103+40.8518+82.4885+44.48C82.8931+45.8242+83.0288+46.6981+83.0288+49.3183L83.0288+71.4907C83.0288+72.8349+83.0288+74.178+82.7586+75.3882C82.0178+78.747+78.9851+81.7719+75.6149+82.5104C74.4023+82.7786+73.054+82.7786+71.7057+82.7786L49.4667+82.7786C46.8385+82.7786+45.9621+82.6445+44.6138+82.2411C40.9747+81.1662+38.1448+77.538+38.1448+73.2383C38.1448+68.9374+40.9747+65.3093+44.6138+64.2344C45.9621+63.831+46.8385+63.6969+49.4667+63.6969L63.8885+63.6969ZM143.143+164.215L23.8575+164.215L23.8575+59.4642C23.8575+58.12+24.3293+56.978+25.273+56.0372L56.2057+25.196C57.1494+24.2564+58.2948+23.7859+59.6431+23.7859L143.143+23.7859L143.143+164.215ZM156.689+0.134064C156.083+0.0670319+155.274+0+153.724+0L56.4747+0C55.3977+0+54.3196+0.0670319+53.5776+0.134064C49.1293+0.53746+45.1528+2.62027+41.9856+5.77801L5.79539+41.8597C2.62936+45.0186+0.539078+48.982+0.135674+53.4169C0.0672379+54.1555+0+55.2304+0+56.3053L0+174.763C0+176.309+0.0672379+177.116+0.135674+177.72C0.673546+182.759+5.25631+187.327+10.3109+187.865C10.9184+187.933+11.7264+188+13.2764+188L153.724+188C155.274+188+156.083+187.933+156.689+187.865C161.744+187.327+166.326+182.759+166.866+177.72C166.932+177.116+167+176.309+167+174.763L167+13.2366C167+11.6913+166.932+10.8845+166.866+10.28C166.326+5.24054+161.744+0.671524+156.689+0.134064Z" opacity="1" fill="#ffffff"/>
</g>
</svg>
