<?xml version="1.0" encoding="UTF-8" standalone="no"?> <!-- Created with Vectornator for iOS (http://vectornator.io/) --><!DOCTYPE svg PUBLIC "-//W3C//DTD SVG 1.1//EN" "http://www.w3.org/Graphics/SVG/1.1/DTD/svg11.dtd">
<svg height="100%" style="fill-rule:evenodd;clip-rule:evenodd;stroke-linecap:round;stroke-linejoin:round;" xmlns:xlink="http://www.w3.org/1999/xlink" xmlns="http://www.w3.org/2000/svg" xml:space="preserve" width="100%" xmlns:vectornator="http://vectornator.io" version="1.1" viewBox="0 0 300 300">
<metadata>
<vectornator:setting key="Units" value="Points"/>
<vectornator:setting key="GuidesVisible" value="1"/>
<vectornator:setting key="RulersVisible" value="1"/>
<vectornator:setting key="SnapToGuides" value="1"/>
<vectornator:setting key="DynamicGuides" value="1"/>
</metadata>
<defs/>
<g id="favicon" vectornator:layerName="favicon">
<path d="M222.769+227.358C206.588+244.616+184.603+250.294+157.99+252.985C104.103+258.434+57.421+234.37+51.768+174.241C49.364+148.679+55.053+124.379+66.523+104.466L59.845+78.2054C58.767+73.6394+62.968+69.2974+67.417+70.3774L90.486+75.9774C104.204+64.7134+120.798+57.3524+139.102+55.5024C154.759+53.9194+169.939+56.5444+183.74+62.5324L205.424+49.4154C209.505+46.9464+214.672+49.7374+215.061+54.6194L216.312+85.5544C232.988+103.161+244.343+127.204+246.91+154.507C248.36+169.929+246.76+181.726+242.672+192.981C240.758+198.249+240.182+202.704+243.642+207.113C246.984+211.374+252.285+219.644+258.196+218.257C267.08+216.174+276.594+216.73+282.474+220.402C293.655+199.407+300+175.446+300+150C300+67.1574+232.843+0.000396729+150+0.000396729C67.157+0.000396729+0+67.1574+0+150C0+232.842+67.157+300+150+300C192.48+300+230.831+282.337+258.123+253.96C253.336+253.241+248.439+251.381+243.789+248.282C234.858+242.328+226.933+236.704+222.769+227.358" opacity="1" fill="#ffffff"/>
<path d="M208.921+117.383L222.93+115.666L222.732+113.142L208.359+114.904C207.742+113.087+207.046+111.312+206.277+109.578L222.109+104.527L221.612+101.358L204.774+107.191C193.479+83.5098+169.057+69.1328+141.408+71.9288C113.803+74.7198+91.9449+94.5968+85.2379+120.034L68.7679+117.539L68.5919+120.776L84.8089+122.533C84.3699+124.404+84.0059+125.513+83.7339+127.437L69.5859+128.566L69.7139+131.097L83.5039+129.996C83.2619+132.137+83.1159+133.514+83.0889+135.703L70.4909+140.854L71.1089+143.977L83.1059+138.362C83.1339+140.035+83.2059+140.928+83.3649+142.621C86.6999+178.084+116.321+185.097+151.712+181.518C187.102+177.939+214.859+165.124+211.525+129.661C211.365+127.959+211.121+127.075+210.834+125.419L223.83+128.242L224.132+125.38L210.502+122.791C210.073+120.683+209.546+119.404+208.921+117.383" opacity="1" fill="#ffffff"/>
</g>
</svg>
