<svg xmlns="http://www.w3.org/2000/svg" viewBox="0 0 951.62 1800.94">
  <defs>
    <style type="text/css">
      .svglogo_logotype path{
        fill: #2b2b00;
      }
      /* @media (prefers-color-scheme: dark){
        .svglogo_logotype path{
          fill: #fff;
        }
      } */
    </style>
  </defs>
  <g class="svglogo_graphic">
    <polygon points="262.41 0 775.07 123.9 835.53 1346.29 262.41 0" style="fill: #f73f23"/>
    <polygon points="775.07 1344.18 400.79 455.94 98.9 662.63 775.07 1344.18" style="fill: #f78323"/>
    <polygon points="723.25 1344.18 251.08 900.06 42.97 1097.21 723.25 1344.18" style="fill: #f7a723"/>
  </g>
  <g class="svglogo_logotype">
    <path d="M627.05,1615.14l-46.17-2.44c-38.11-1.71-59.36-16.37-59.36-50.81,0-44.22,31.51-60.83,87.7-60.83,55.94,0,87.45,16.61,87.45,60.83v7.81H653.43v-7.57c0-16.37-15.88-22.72-44.21-22.72-28.58,0-44.46,6.11-44.46,22.72,0,10.75,7.57,15.39,21.5,16.12l46.65,2.69c42.26,2,66,17.83,66,56.18,0,45.2-32.25,62.3-89.65,62.3-57.65,0-89.9-17.1-89.9-62.54v-15.63h43.24v13.43c0,19.06,16.61,26.14,46.66,26.14,29.8,0,46.66-6.35,46.66-23.7C655.88,1622.47,645.62,1616.12,627.05,1615.14Z" transform="translate(-519.32 -68.71)"/>
    <path d="M725,1627.84V1502.77h43.24v123.36c0,25.41,16.12,34.93,44.94,34.93,28.34,0,44.46-9.52,44.46-34.93V1502.77h43.48v125.07c0,52-31.75,71.82-87.94,71.82C756.76,1699.66,725,1679.87,725,1627.84Z" transform="translate(-519.32 -68.71)"/>
    <path d="M1095.32,1566.77c0,46.41-24.92,63.76-69.13,63.76H970.25v66.93H927V1503h99.18C1070.4,1503,1095.32,1520.36,1095.32,1566.77Zm-43,0c0-18.56-10-25.65-27.85-25.65H970.25v51.3h54.23C1042.31,1592.42,1052.33,1585.34,1052.33,1566.77Z" transform="translate(-519.32 -68.71)"/>
    <path d="M1121.21,1697.71V1502.77H1272.9v38.6H1164v37.86h102.59v36.15H1164v43.73H1272.9v38.6Z" transform="translate(-519.32 -68.71)"/>
    <path d="M1470.52,1646.65v50.81H1427v-50.81c0-14.66-7.58-20.52-21-20.52h-63.76v71.33h-43.48V1502.77h100.4c42.5,0,66.69,17.1,66.69,61.8,0,17.59-4.16,30.29-12,39.33C1464.66,1612.45,1470.52,1626.13,1470.52,1646.65Zm-47.88-82.32c0-16.86-9-23.21-25.16-23.21H1342v46.17h55.45C1413.6,1587.29,1422.64,1580.94,1422.64,1564.33Z" transform="translate(-519.32 -68.71)"/>
    <path d="M581.14,1869.65H560.92c-30.27,0-39.32-8.63-39.32-33.23h12.87c0,16.83,5.37,21.35,26.87,21.35H581c21.07,0,25.73-6.22,25.73-21.07v-2.12c0-13-1.27-19.8-34.36-19.8h-7.49c-34.09,0-42.71-6.22-42.71-30.83v-3c0-17.82,8.91-29.84,39.17-29.84h18.95c27.29,0,36.77,8.91,36.77,30.83H603.77c0-13.43-4.67-18.81-23.76-18.81H561.34c-19.8,0-26.45,5.8-26.45,18.25v2.82c0,15.42,4.11,18.81,33.52,18.81h6.93c36.63,0,44.55,7.92,44.55,31v2.41C619.89,1858.62,612.25,1869.65,581.14,1869.65Z" transform="translate(-519.32 -68.71)"/>
    <path d="M700.92,1764.29v104.79H688.33V1764.29h-44.4v-12.16h99.7v12.16Z" transform="translate(-519.32 -68.71)"/>
    <path d="M852.66,1868.66l-10-26.44H773.19l-10,26.44h-13.3l44.41-116.53h27.29L866,1868.66Zm-39.31-104.37H802.46l-24.75,65.91H838Z" transform="translate(-519.32 -68.71)"/>
    <path d="M982.91,1868.8l-13-26.87c-9.19-18.81-14.85-22.34-34.79-22.34H916.73v-11.88H950.1c21.21,0,28.57-4.53,28.57-20.08v-3.82c0-14-4.95-19.94-22.35-19.94H906.83V1868.8H894.52v-117H957c25.6,0,34.22,8.06,34.22,30.4V1789c0,16.41-6.78,25.88-25.17,28.71,7.5,3.82,11.46,10.89,17,22.06l14,29Z" transform="translate(-519.32 -68.71)"/>
    <path d="M1156.57,1868.8v-89l.57-18.1-41.44,107H1104l-41.43-107,.57,18.1v89h-12.17V1752.13h19.24l39.59,101.68,39.74-101.68h19.23V1868.8Z" transform="translate(-519.32 -68.71)"/>
    <path d="M1203.24,1868.8V1752H1216V1868.8Z" transform="translate(-519.32 -68.71)"/>
    <path d="M1334.48,1868.8l-70.85-105.92V1868.8h-12.45V1752.13h18.39l71,105.64V1752.13h12.3V1868.8Z" transform="translate(-519.32 -68.71)"/>
    <path d="M1397.55,1764.15v38H1467v11.88h-69.44v42.57h73.26v12h-85.56V1752H1471v12.16Z" transform="translate(-519.32 -68.71)"/>
  </g>
</svg>
