<svg xmlns="http://www.w3.org/2000/svg" viewBox="0 0 1572.13 600.41">
  <g id="цик">
    <g>
      <g>
        <polygon points="97.86 0 326.5 55.26 353.46 600.41 97.86 0" style="fill: #f73f23"/>
        <polygon points="326.5 599.46 159.58 203.33 24.95 295.51 326.5 599.46" style="fill: #f78323"/>
        <polygon points="303.39 599.46 92.81 401.4 0 489.32 303.39 599.46" style="fill: #f7a723"/>
      </g>
      <g>
        <path d="M759.54,973.54l-55.73-2.94c-46-2.07-71.65-19.76-71.65-61.33,0-53.37,38-73.42,105.85-73.42,67.52,0,105.56,20,105.56,73.42v9.43H791.38v-9.14c0-19.75-19.17-27.42-53.37-27.42-34.49,0-53.66,7.37-53.66,27.42,0,13,9.14,18.58,25.95,19.46l56.31,3.25c51,2.35,79.61,21.52,79.61,67.81,0,54.55-38.92,75.19-108.21,75.19-69.58,0-108.5-20.64-108.5-75.48V980.92H681.7v16.21c0,23,20,31.55,56.31,31.55,36,0,56.32-7.67,56.32-28.6C794.33,982.39,781.94,974.72,759.54,973.54Z" transform="translate(-206 -683.92)" style="fill: #fff"/>
        <path d="M877.76,988.88v-151H930V986.81c0,30.67,19.46,42.16,54.25,42.16,34.2,0,53.66-11.49,53.66-42.16V837.92h52.48v151c0,62.8-38.33,86.68-106.14,86.68C916.09,1075.56,877.76,1051.68,877.76,988.88Z" transform="translate(-206 -683.92)" style="fill: #fff"/>
        <path d="M1324.74,915.16c0,56-30.07,77-83.44,77h-67.52v80.79h-52.19V838.21H1241.3C1294.67,838.21,1324.74,859.14,1324.74,915.16Zm-51.89,0c0-22.4-12.09-30.95-33.62-30.95h-65.45v61.91h65.45C1260.76,946.12,1272.85,937.57,1272.85,915.16Z" transform="translate(-206 -683.92)" style="fill: #fff"/>
        <path d="M1356,1073.2V837.92h183.1V884.5h-131.5v45.7h123.84v43.64H1407.58v52.78h131.5v46.58Z" transform="translate(-206 -683.92)" style="fill: #fff"/>
        <path d="M1777.61,1011.58v61.33h-52.49v-61.33c0-17.69-9.14-24.77-25.35-24.77h-77v86.1h-52.48v-235h121.18c51.3,0,80.49,20.63,80.49,74.59,0,21.23-5,36.56-14.44,47.47C1770.53,970.3,1777.61,986.81,1777.61,1011.58Zm-57.79-99.36c0-20.35-10.91-28-30.37-28h-66.93v55.72h66.93C1708.91,939.93,1719.82,932.27,1719.82,912.22Z" transform="translate(-206 -683.92)" style="fill: #fff"/>
        <path d="M704.12,1280.74H679.71c-36.53,0-47.45-10.41-47.45-40.11h15.53c0,20.31,6.49,25.77,32.43,25.77H704c25.44,0,31.07-7.51,31.07-25.43v-2.56c0-15.71-1.54-23.9-41.48-23.9h-9c-41.14,0-51.55-7.51-51.55-37.21v-3.59c0-21.51,10.75-36,47.28-36H703.1c32.94,0,44.38,10.76,44.38,37.22H731.43c0-16.22-5.63-22.71-28.67-22.71H680.22c-23.89,0-31.92,7-31.92,22v3.42c0,18.61,5,22.7,40.46,22.7h8.36c44.21,0,53.77,9.56,53.77,37.38v2.91C750.89,1267.43,741.68,1280.74,704.12,1280.74Z" transform="translate(-206 -683.92)" style="fill: #fff"/>
        <path d="M848.7,1153.57v126.49H833.51V1153.57h-53.6v-14.68H900.25v14.68Z" transform="translate(-206 -683.92)" style="fill: #fff"/>
        <path d="M1031.86,1279.55l-12.12-31.93H935.92l-12.12,31.93h-16l53.6-140.66H994.3l53.6,140.66Zm-47.46-126H971.26l-29.87,79.55h72.71Z" transform="translate(-206 -683.92)" style="fill: #fff"/>
        <path d="M1189.07,1279.72l-15.71-32.44c-11.09-22.7-17.92-27-42-27h-22.19V1206h40.28c25.61,0,34.48-5.46,34.48-24.23v-4.61c0-16.9-6-24.07-27-24.07h-59.74v126.66h-14.85V1138.55h75.45c30.89,0,41.31,9.73,41.31,36.7v8.19c0,19.8-8.2,31.24-30.39,34.65,9,4.61,13.83,13.15,20.49,26.63l16.89,35Z" transform="translate(-206 -683.92)" style="fill: #fff"/>
        <path d="M1398.68,1279.72V1172.35l.68-21.85-50,129.22h-14.17l-50-129.22.68,21.85v107.37h-14.67V1138.89h23.21l47.8,122.73,48-122.73h23.22v140.83Z" transform="translate(-206 -683.92)" style="fill: #fff"/>
        <path d="M1455,1279.72v-141h15.37v141Z" transform="translate(-206 -683.92)" style="fill: #fff"/>
        <path d="M1613.41,1279.72l-85.52-127.86v127.86h-15V1138.89h22.19l85.69,127.51V1138.89h14.85v140.83Z" transform="translate(-206 -683.92)" style="fill: #fff"/>
        <path d="M1689.54,1153.4v45.92h83.81v14.34h-83.81V1265H1778v14.51H1674.69V1138.72h103.44v14.68Z" transform="translate(-206 -683.92)" style="fill: #fff"/>
      </g>
    </g>
  </g>
</svg>
