<?xml version="1.0" encoding="UTF-8"?>
<svg width="65" height="65" viewBox="0 0 65 65" xmlns="http://www.w3.org/2000/svg" id="shape">
<path d="m32.469 0.5c-16.958 0-30.842 13.194-31.938 29.875 0.005208 0.0087-0.005192 0.0225 0 0.0312 0.002729 0.0046 0.028525-0.0045 0.03125 0l17.188 7.0626c0.4701-0.3182 0.9741-0.5676 1.5-0.7813 1.208-0.497 2.4507-0.7143 3.7188-0.6563l7.8437-11.375v-0.1562c0-6.714 5.4542-12.188 12.156-12.188 6.7149 0.014 12.156 5.4735 12.156 12.188s-5.4513 12.156-12.156 12.156h-0.2813l-11.188 8c0.0323 1.2533-0.2043 2.4995-0.6875 3.6563-1.8861 4.5221-7.1004 6.6613-11.625 4.7813-2.762-1.1501-4.6188-3.5221-5.2187-6.25l-12.094-5c4.0053 13.1 16.182 22.656 30.594 22.656 17.673 0 32-14.327 32-32s-14.327-32-32-32zm10.5 15.875c-4.4725 0.0121-8.0889 3.6525-8.0938 8.125 0.0038 4.4732 3.6205 8.0816 8.0938 8.0938 4.474-0.0111 8.0899-3.6198 8.0937-8.0938-0.0049-4.4732-3.6205-8.114-8.0937-8.125zm0 2c3.355 0 6.0937 2.7288 6.0937 6.0938 0.0017 3.3622-2.7315 6.0904-6.0937 6.0937-3.3611-5e-3 -6.0642-2.7327-6.0626-6.0937-0.0027-3.3615 2.7011-6.0883 6.0626-6.0938zm-20.281 19.656c-0.8555-0.0071-1.711 0.1688-2.5 0.4688l4.0937 1.6875c2.5713 1.0744 3.7901 4.0212 2.7188 6.5937-1.0686 2.5716-4.0229 3.7889-6.5938 2.7188l-3.9687-1.625c0.7224 1.5151 1.9839 2.6934 3.5313 3.3438 3.487 1.453 7.5147-0.1875 8.9687-3.6876 0.702-1.6859 0.696-3.5569 0-5.25-0.696-1.6929-1.9875-3.0157-3.6875-3.7187-0.839-0.3485-1.707-0.5241-2.5625-0.5313z" />
</svg>
