<?xml version="1.0" encoding="UTF-8" standalone="no"?> <!-- Created with Vectornator for iOS (http://vectornator.io/) --><!DOCTYPE svg PUBLIC "-//W3C//DTD SVG 1.1//EN" "http://www.w3.org/Graphics/SVG/1.1/DTD/svg11.dtd">
<svg height="100%" style="fill-rule:evenodd;clip-rule:evenodd;stroke-linecap:round;stroke-linejoin:round;" xmlns:xlink="http://www.w3.org/1999/xlink" xmlns="http://www.w3.org/2000/svg" xml:space="preserve" width="100%" xmlns:vectornator="http://vectornator.io" version="1.1" viewBox="0 0 176 124">
<metadata>
<vectornator:setting key="Units" value="Points"/>
<vectornator:setting key="GuidesVisible" value="1"/>
<vectornator:setting key="RulersVisible" value="1"/>
<vectornator:setting key="SnapToGuides" value="1"/>
<vectornator:setting key="DynamicGuides" value="1"/>
</metadata>
<defs/>
<g id="Layer 1" vectornator:layerName="Layer 1">
<path d="M172.322+19.363C170.298+11.741+164.335+5.739+156.761+3.702C143.037+0+88+0+88+0C88+0+32.963+0+19.238+3.702C11.665+5.739+5.701+11.741+3.677+19.363C0+33.177+0+62+0+62C0+62+0+90.822+3.677+104.638C5.701+112.259+11.665+118.261+19.238+120.299C32.963+124+88+124+88+124C88+124+143.037+124+156.761+120.299C164.335+118.261+170.298+112.259+172.322+104.638C176+90.822+176+62+176+62C176+62+176+33.177+172.322+19.363" opacity="1" fill="#ff0000"/>
<path d="M70+88.168L116+62L70+35.83L70+88.168Z" opacity="1" fill="#ffffff"/>
</g>
</svg>
