<svg width="366" height="232" viweBox="0 0 366 232" xmlns="http://www.w3.org/2000/svg"><path d="M230.08 4.38c-5.46.37-9.83.95-12.53 1.68-.68.18-2.14.52-3.25.76-6.23 1.34-12.81 4.74-17 8.78-3.33 3.22-8.07 6.56-13.3 9.4-14.03 7.6-17.71 10.1-24.44 16.61a71.23 71.23 0 00-7.88 9.56c-.67.86-1.1 1.49-3.41 4.82a748.6 748.6 0 00-7.81 11.44 467.47 467.47 0 01-6.29 9.27c-2.64 4-5.3 8-7.97 12l-4.82 7.32c-2.41 3.66-5.56 8.45-6.98 10.64l-5.7 8.73c-1.8 2.72-3.58 5.45-5.33 8.2-.64.97-2.04 3.12-3.1 4.8-3.19 4.98-3.12 4.92-4.9 4.46a491.94 491.94 0 00-20.23-4.41c-1.6-.32-3.2-.67-4.8-1.07-.84-.22-2.8-.62-4.32-.88-5.42-.91-8.04-1.45-8.58-1.74-.3-.16-.99-.3-1.54-.3-1.06 0-5.63-.74-6.43-1.04-.25-.1-3.73-.66-7.73-1.27-3.99-.6-7.82-1.22-8.5-1.4a67.7 67.7 0 00-5.87-.77l-7.27-.76c-11.34-1.26-20.1-.39-20.1 2 0 4.1 9.36 12.56 20.87 18.85l4.18 2.31c6.9 3.88 18.45 9.34 31.08 14.7a227.7 227.7 0 009.3 3.86c.1 0 .92.35 1.86.77.93.44 1.77.78 1.88.78.2 0 9.18 3.5 11.07 4.31.34.15 1.25.5 2.01.76.77.26 3.07 1.08 5.11 1.83l7.2 2.63c1.91.7 3.62 1.35 3.79 1.45.16.1.95.37 1.77.6.8.22 3.27 1.06 5.48 1.86 3.53 1.27 7.4 2.6 12.68 4.36l4.5 1.52c1.6.55 5.21 1.74 8.03 2.62 2.8.9 5.54 1.8 6.07 2.05.54.24 1.1.43 1.24.42.15 0 2.29.64 4.75 1.43 7.55 2.4 11.75 3.73 15.46 4.87l6.19 1.9c1.44.46 4.26 1.3 6.26 1.87 2 .57 3.8 1.13 4 1.25.2.13 1.13.4 2.08.62.94.22 2.91.76 4.35 1.2 1.45.44 3.62 1.06 4.8 1.39l6.8 1.87a1090 1090 0 009.28 2.51c2.55.67 4.92 1.33 5.25 1.49.34.16 1.6.5 2.8.74 1.18.25 3.27.75 4.62 1.12 1.37.36 3.7.92 5.18 1.24 1.48.31 2.83.65 3 .75.29.18 8.43 2.13 13.63 3.27 1.44.3 3.95.87 5.57 1.23 1.6.37 3.63.8 4.48.99 8.4 1.84 16.86 3.48 25.35 4.91 3.91.68 7.59 1.36 8.2 1.5.6.17 1.99.4 3.1.5 1.1.1 2.77.33 3.71.51 2.88.55 9.58 1.5 12.83 1.82 1.7.17 4.06.44 5.26.6 20.38 2.82 47.17 2.86 55.5.07 2.26-.75 4.64-2.47 4.64-3.34 0-1.1-3.68-4.67-6.69-6.46-7.02-4.24-20.83-11.2-25.78-12.99-1.02-.4-2.04-.85-3.03-1.34-1-.5-2.04-.93-3.1-1.3-.6-.2-1.19-.45-1.75-.75-.34-.2-1.78-.82-3.2-1.37a44.27 44.27 0 01-3.1-1.28 49.1 49.1 0 00-3.4-1.38 49.22 49.22 0 01-3.39-1.39c-.29-.15-.94-.4-1.45-.57-.5-.17-2.6-.95-4.64-1.76-3.9-1.54-7.82-3.05-11.75-4.53-1.36-.48-4.85-1.8-5.56-2.1-.35-.14-2.9-1.07-5.67-2.05a62.33 62.33 0 01-5.52-2.14c-.57-.4-.85-1.64-2.26-10.34-.2-1.28-.63-3.78-.94-5.57-.33-1.79-.72-4.15-.89-5.25a602.9 602.9 0 00-3.6-20.38c-.09-.23-.43-2.04-.76-4.01a251.7 251.7 0 00-2.1-11.32c-.18-.68-.4-2.14-.5-3.24-.13-1.1-.33-2.29-.48-2.63-.35-.84-1.63-7.39-1.79-9.19-.15-1.6.05-1.81 3.32-3.39 4.04-1.95 11.1-7.33 16.34-12.45 7.24-7.06 8.66-9.35 9.02-14.51.27-3.96.84-5.31 3.06-7.36 4.2-3.88 14.1-7.26 18.78-6.4 6.2 1.16 23.67 14.07 24.41 18.07.32 1.67-.01 6.22-.63 8.68a7.77 7.77 0 001.62 7.08c5.7 6.22 11.94 22.81 13.02 34.69.36 3.88.8 4.16 2.35 1.42 1.77-3.14 1.8-3.54 2.05-27.92.15-14.52.35-23.01.57-24.11.58-2.82.75-7.34.35-9.24-1.52-7.29-2.94-11.2-5.09-14.03-9.54-12.6-24.41-25.11-40.4-33.98a101.2 101.2 0 01-4.16-2.38c-.68-.42-1.8-1.06-2.48-1.44l-5.87-3.4c-7.37-4.27-13.37-7.41-16.05-8.37a7.44 7.44 0 01-1.56-.7c-.43-.37-7.63-2.99-9.3-3.39-.68-.16-2.63-.68-4.32-1.13-6.12-1.67-24-2.21-38.81-1.2" fill="#56449A"/></svg>