<svg xmlns="http://www.w3.org/2000/svg" viewBox="0 0 1572.1 600.41"><path fill="#f73f23" d="M97.86 0 326.5 55.26l26.96 545.15z"/><path fill="#f78323" d="M326.5 599.46 159.58 203.33 24.95 295.51z"/><path fill="#f7a723" d="M303.39 599.46 92.81 401.4 0 489.32z"/><path fill="#ffffff" d="m553.54 289.62-55.73-2.94c-46-2.07-71.65-19.76-71.65-61.33 0-53.37 38-73.42 105.85-73.42 67.52 0 105.56 20 105.56 73.42v9.43h-52.19v-9.14c0-19.75-19.17-27.42-53.37-27.42-34.49 0-53.66 7.37-53.66 27.42 0 13 9.14 18.58 25.95 19.46l56.31 3.25c51 2.35 79.61 21.52 79.61 67.81 0 54.55-38.92 75.19-108.21 75.19-69.58 0-108.5-20.64-108.5-75.48V297h52.19v16.21c0 23 20 31.55 56.31 31.55 36 0 56.32-7.67 56.32-28.6 0-17.69-12.39-25.36-34.79-26.54zm118.22 15.34v-151H724v148.93c0 30.67 19.46 42.16 54.25 42.16 34.2 0 53.66-11.49 53.66-42.16V154h52.48v151c0 62.8-38.33 86.68-106.14 86.68-68.16-.04-106.49-23.92-106.49-86.72zm446.94-73.72c0 56-30.07 77-83.44 77h-67.52v80.79h-52.19V154.29h119.71c53.37 0 83.44 20.93 83.44 76.95zm-51.89 0c0-22.4-12.09-30.95-33.62-30.95h-65.45v61.91h65.45c21.53 0 33.62-8.55 33.62-30.96zM1150 389.28V154h183.1v46.58h-131.5v45.7h123.84v43.64h-123.86v52.78h131.5v46.58Zm421.6-61.6v61.33h-52.49v-61.33c0-17.69-9.14-24.77-25.35-24.77h-77v86.1h-52.48v-235h121.18c51.3 0 80.49 20.63 80.49 74.59 0 21.23-5 36.56-14.44 47.47 13.01 10.33 20.09 26.84 20.09 51.61zm-57.79-99.36c0-20.35-10.91-28-30.37-28h-66.93v55.72h66.93c19.46-.01 30.37-7.67 30.37-27.72zM498.12 596.78h-24.41c-36.53 0-47.45-10.41-47.45-40.11h15.53c0 20.31 6.49 25.77 32.43 25.77H498c25.44 0 31.07-7.51 31.07-25.43v-2.56c0-15.71-1.54-23.9-41.48-23.9h-9c-41.14 0-51.55-7.51-51.55-37.21v-3.59c0-21.51 10.75-36 47.28-36h22.78c32.94 0 44.38 10.76 44.38 37.22h-16.05c0-16.22-5.63-22.71-28.67-22.71h-22.54c-23.89 0-31.92 7-31.92 22v3.42c0 18.61 5 22.7 40.46 22.7h8.36c44.21 0 53.77 9.56 53.77 37.38v2.91c0 26.8-9.21 40.11-46.77 40.11zm144.58-127.1v126.49h-15.19V469.68h-53.6V455h120.34v14.68zm183.2 126-12.12-31.93h-83.82l-12.12 31.93h-16l53.6-140.66h32.9l53.6 140.66zm-47.46-126H765.3l-29.87 79.55h72.71zm204.66 126.1-15.71-32.44c-11.09-22.7-17.92-27-42-27H903.2v-14.28h40.28c25.61 0 34.48-5.46 34.48-24.23v-4.61c0-16.9-6-24.07-27-24.07h-59.74v126.66h-14.85v-141.2h75.45c30.89 0 41.31 9.73 41.31 36.7v8.19c0 19.8-8.2 31.24-30.39 34.65 9 4.61 13.83 13.15 20.49 26.63l16.89 35zm209.58.02V488.43l.68-21.85-50 129.22h-14.17l-50-129.22.68 21.85V595.8h-14.67V454.97h23.21l47.8 122.73 48-122.73h23.22V595.8Zm56.32-.02v-141h15.37v141zm158.4 0-85.52-127.86v127.86h-15V454.95h22.19l85.69 127.51V454.95h14.85v140.83zm76.14-126.3v45.92h83.81v14.34h-83.81v51.34H1572v14.51h-103.31V454.8h103.44v14.68Z"/></svg>
